<?xml version="1.0" encoding="utf-8"?>
<!-- Generator: Adobe Illustrator 26.0.3, SVG Export Plug-In . SVG Version: 6.00 Build 0)  -->
<svg version="1.1" id="Calque_1" xmlns="http://www.w3.org/2000/svg" xmlns:xlink="http://www.w3.org/1999/xlink" x="0px" y="0px"
	 viewBox="0 0 279.4 221" style="enable-background:new 0 0 279.4 221;" xml:space="preserve">
<style type="text/css">
	.st0{fill:#19A19A;}
	.st1{fill:#2D3281;}
	.st2{fill:#E43432;}
</style>
<g>
	<path class="st0" d="M3.6,2c0-0.7,0.6-1.3,1.3-1.3h4.6c0.7,0,1.3,0.6,1.3,1.3v41.2h19c0.8,0,1.3,0.6,1.3,1.3v3.9
		c0,0.7-0.6,1.3-1.3,1.3H4.9c-0.8,0-1.3-0.6-1.3-1.3V2z"/>
	<path class="st0" d="M44.1,47.9L65.6,0.8C65.8,0.4,66.4,0,66.8,0h0.7c0.4,0,1,0.4,1.2,0.8L90,47.9c0.4,0.9-0.1,1.8-1.2,1.8h-4.4
		c-0.8,0-1.3-0.4-1.6-1.1l-4.3-9.6H55.6c-1.4,3.2-2.9,6.4-4.3,9.6c-0.2,0.5-0.8,1.1-1.6,1.1h-4.4C44.2,49.7,43.7,48.8,44.1,47.9z
		 M75.8,33l-8.6-19.2h-0.4L58.3,33H75.8z"/>
	<path class="st0" d="M107,2c0-0.7,0.6-1.3,1.3-1.3h16.1c13.5,0,24.6,11,24.6,24.4c0,13.6-11.1,24.6-24.6,24.6h-16.1
		c-0.7,0-1.3-0.6-1.3-1.3V2z M123.4,43.1c10.3,0,17.8-7.6,17.8-17.9c0-10.3-7.5-17.8-17.8-17.8h-9.2v35.7H123.4z"/>
	<path class="st0" d="M169,2c0-0.7,0.6-1.3,1.3-1.3h4.6c0.7,0,1.3,0.6,1.3,1.3v46.3c0,0.7-0.6,1.3-1.3,1.3h-4.6
		c-0.7,0-1.3-0.6-1.3-1.3V2z"/>
	<path class="st0" d="M199.9,2c0-0.7,0.6-1.3,1.3-1.3h28c0.8,0,1.3,0.6,1.3,1.3V6c0,0.7-0.6,1.3-1.3,1.3h-22.1v14.3h18.7
		c0.7,0,1.3,0.6,1.3,1.3v3.9c0,0.8-0.6,1.3-1.3,1.3h-18.7v15.1h22.1c0.8,0,1.3,0.6,1.3,1.3v3.9c0,0.7-0.6,1.3-1.3,1.3h-28
		c-0.8,0-1.3-0.6-1.3-1.3V2z"/>
	<path class="st0" d="M248,42.6c0.6-0.9,1.2-2,1.8-2.9c0.6-0.9,1.6-1.2,2.4-0.6c0.4,0.4,5.8,4.8,11.2,4.8c4.8,0,7.9-2.9,7.9-6.5
		c0-4.2-3.6-6.9-10.6-9.7c-7.1-3-12.7-6.7-12.7-14.8c0-5.5,4.2-13,15.3-13c7,0,12.3,3.6,13,4.1c0.6,0.4,1.1,1.3,0.4,2.4
		c-0.6,0.8-1.2,1.8-1.8,2.7c-0.6,0.9-1.5,1.3-2.5,0.7c-0.5-0.3-5.4-3.5-9.5-3.5c-5.9,0-7.9,3.7-7.9,6.3c0,4,3.1,6.4,8.9,8.8
		c8.1,3.3,15.1,7.1,15.1,15.7c0,7.3-6.5,13.2-15.6,13.2c-8.5,0-13.9-4.5-15.1-5.5C247.8,44.3,247.3,43.8,248,42.6z"/>
</g>
<g>
	<path class="st1" d="M25.1,83.3c14,0,25.2,11.3,25.2,25.3c0,14-11.2,25.1-25.2,25.1S0,122.6,0,108.6C0,94.6,11.1,83.3,25.1,83.3z
		 M25.1,126.7c10,0,18.2-8.1,18.2-18.1c0-9.9-8.2-18.3-18.2-18.3C15.2,90.3,7,98.6,7,108.6C7,118.6,15.2,126.7,25.1,126.7z"/>
	<path class="st1" d="M70.3,85.3c0-0.7,0.6-1.3,1.3-1.3h28c0.8,0,1.3,0.6,1.3,1.3v3.9c0,0.7-0.6,1.3-1.3,1.3H77.6v16.2h18.7
		c0.7,0,1.3,0.6,1.3,1.3v3.9c0,0.7-0.6,1.3-1.3,1.3H77.6v18.4c0,0.7-0.6,1.3-1.3,1.3h-4.6c-0.8,0-1.3-0.6-1.3-1.3V85.3z"/>
</g>
<g>
	<path class="st2" d="M25.3,167.1c7.1,0,12.2,2.4,16.9,6.5c0.6,0.6,0.6,1.4,0.1,2l-3.1,3.2c-0.5,0.6-1.1,0.6-1.8,0
		c-3.3-2.9-7.8-4.7-12.1-4.7c-10,0-17.6,8.4-17.6,18.2c0,9.8,7.6,18.1,17.6,18.1c5.1,0,8.7-2,12-4.6c0.6-0.5,1.3-0.4,1.7-0.1
		l3.2,3.2c0.6,0.5,0.4,1.4-0.1,1.9c-4.8,4.6-10.8,6.8-17,6.8c-14,0-25.3-11.1-25.3-25.1C0,178.3,11.3,167.1,25.3,167.1z"/>
	<path class="st2" d="M83.7,167.1c14,0,25.2,11.3,25.2,25.3c0,14-11.2,25.1-25.2,25.1s-25.1-11.1-25.1-25.1
		C58.5,178.3,69.7,167.1,83.7,167.1z M83.7,210.5c10,0,18.2-8.1,18.2-18.1c0-9.9-8.2-18.3-18.2-18.3c-9.9,0-18.1,8.3-18.1,18.3
		C65.5,202.4,73.7,210.5,83.7,210.5z"/>
	<path class="st2" d="M128.9,169.1c0-0.7,0.6-1.3,1.3-1.3h16.1c13.5,0,24.6,11,24.6,24.4c0,13.6-11.1,24.6-24.6,24.6h-16.1
		c-0.7,0-1.3-0.6-1.3-1.3V169.1z M145.3,210.1c10.3,0,17.8-7.6,17.8-17.9c0-10.3-7.5-17.8-17.8-17.8H136v35.7H145.3z"/>
	<path class="st2" d="M190.9,169.1c0-0.7,0.6-1.3,1.3-1.3h28c0.8,0,1.3,0.6,1.3,1.3v3.9c0,0.7-0.6,1.3-1.3,1.3h-22.1v14.3h18.7
		c0.7,0,1.3,0.6,1.3,1.3v3.9c0,0.8-0.6,1.3-1.3,1.3h-18.7v15.1h22.1c0.8,0,1.3,0.6,1.3,1.3v3.9c0,0.7-0.6,1.3-1.3,1.3h-28
		c-0.8,0-1.3-0.6-1.3-1.3V169.1z"/>
	<path class="st2" d="M242.8,216.5h34.6c1.2,0,2.1,0.6,2.1,1.3v2c0,0.7-0.9,1.3-2.1,1.3h-34.6c-1.2,0-2.1-0.6-2.1-1.3v-2
		C240.7,217,241.6,216.5,242.8,216.5z"/>
</g>
</svg>
