<?xml version="1.0" encoding="utf-8"?>
<!-- Generator: Adobe Illustrator 26.0.3, SVG Export Plug-In . SVG Version: 6.00 Build 0)  -->
<svg version="1.1" id="Calque_1" xmlns="http://www.w3.org/2000/svg" xmlns:xlink="http://www.w3.org/1999/xlink" x="0px" y="0px"
	 viewBox="0 0 377.4 319" style="enable-background:new 0 0 377.4 319;" xml:space="preserve">
<style type="text/css">
	.st0{fill:#19A19A;}
	.st1{fill:#2D3281;}
	.st2{fill:#E43432;}
</style>
<g>
	<path class="st0" d="M52.6,51c0-0.7,0.6-1.3,1.3-1.3h4.6c0.7,0,1.3,0.6,1.3,1.3v41.2h19c0.8,0,1.3,0.6,1.3,1.3v3.9
		c0,0.7-0.6,1.3-1.3,1.3H53.9c-0.8,0-1.3-0.6-1.3-1.3V51z"/>
	<path class="st0" d="M93.1,96.9l21.5-47.1c0.2-0.4,0.8-0.8,1.2-0.8h0.7c0.4,0,1,0.4,1.2,0.8L139,96.9c0.4,0.9-0.1,1.8-1.2,1.8h-4.4
		c-0.8,0-1.3-0.4-1.6-1.1l-4.3-9.6h-22.9c-1.4,3.2-2.9,6.4-4.3,9.6c-0.2,0.5-0.8,1.1-1.6,1.1h-4.4C93.2,98.7,92.7,97.8,93.1,96.9z
		 M124.8,82l-8.6-19.2h-0.4L107.3,82H124.8z"/>
	<path class="st0" d="M156,51c0-0.7,0.6-1.3,1.3-1.3h16.1c13.5,0,24.6,11,24.6,24.4c0,13.6-11.1,24.6-24.6,24.6h-16.1
		c-0.7,0-1.3-0.6-1.3-1.3V51z M172.4,92.1c10.3,0,17.8-7.6,17.8-17.9c0-10.3-7.5-17.8-17.8-17.8h-9.2v35.7H172.4z"/>
	<path class="st0" d="M218.1,51c0-0.7,0.6-1.3,1.3-1.3h4.6c0.7,0,1.3,0.6,1.3,1.3v46.3c0,0.7-0.6,1.3-1.3,1.3h-4.6
		c-0.7,0-1.3-0.6-1.3-1.3V51z"/>
	<path class="st0" d="M248.9,51c0-0.7,0.6-1.3,1.3-1.3h28c0.8,0,1.3,0.6,1.3,1.3V55c0,0.7-0.6,1.3-1.3,1.3h-22.1v14.3h18.7
		c0.7,0,1.3,0.6,1.3,1.3v3.9c0,0.8-0.6,1.3-1.3,1.3h-18.7v15.1h22.1c0.8,0,1.3,0.6,1.3,1.3v3.9c0,0.7-0.6,1.3-1.3,1.3h-28
		c-0.8,0-1.3-0.6-1.3-1.3V51z"/>
	<path class="st0" d="M297,91.6c0.6-0.9,1.2-2,1.8-2.9c0.6-0.9,1.6-1.2,2.4-0.6c0.4,0.4,5.8,4.8,11.2,4.8c4.8,0,7.9-2.9,7.9-6.5
		c0-4.2-3.6-6.9-10.6-9.7c-7.1-3-12.7-6.7-12.7-14.8c0-5.5,4.2-13,15.3-13c7,0,12.3,3.6,13,4.1c0.6,0.4,1.1,1.3,0.4,2.4
		c-0.6,0.8-1.2,1.8-1.8,2.7c-0.6,0.9-1.5,1.3-2.5,0.7c-0.5-0.3-5.4-3.5-9.5-3.5c-5.9,0-7.9,3.7-7.9,6.3c0,4,3.1,6.4,8.9,8.8
		c8.1,3.3,15.1,7.1,15.1,15.7c0,7.3-6.5,13.2-15.6,13.2c-8.5,0-13.9-4.5-15.1-5.5C296.8,93.3,296.3,92.8,297,91.6z"/>
</g>
<g>
	<path class="st1" d="M74.1,132.3c14,0,25.2,11.3,25.2,25.3c0,14-11.2,25.1-25.2,25.1S49,171.6,49,157.6
		C49,143.6,60.1,132.3,74.1,132.3z M74.1,175.7c10,0,18.2-8.1,18.2-18.1c0-9.9-8.2-18.3-18.2-18.3c-9.9,0-18.1,8.3-18.1,18.3
		C56,167.6,64.2,175.7,74.1,175.7z"/>
	<path class="st1" d="M119.4,134.3c0-0.7,0.6-1.3,1.3-1.3h28c0.8,0,1.3,0.6,1.3,1.3v3.9c0,0.7-0.6,1.3-1.3,1.3h-22.1v16.2h18.7
		c0.7,0,1.3,0.6,1.3,1.3v3.9c0,0.7-0.6,1.3-1.3,1.3h-18.7v18.4c0,0.7-0.6,1.3-1.3,1.3h-4.6c-0.8,0-1.3-0.6-1.3-1.3V134.3z"/>
</g>
<g>
	<path class="st2" d="M74.3,216.1c7.1,0,12.2,2.4,16.9,6.5c0.6,0.6,0.6,1.4,0.1,2l-3.1,3.2c-0.5,0.6-1.1,0.6-1.8,0
		c-3.3-2.9-7.8-4.7-12.1-4.7c-10,0-17.6,8.4-17.6,18.2c0,9.8,7.6,18.1,17.6,18.1c5.1,0,8.7-2,12-4.6c0.6-0.5,1.3-0.4,1.7-0.1
		l3.2,3.2c0.6,0.5,0.4,1.4-0.1,1.9c-4.8,4.6-10.8,6.8-17,6.8c-14,0-25.3-11.1-25.3-25.1C49,227.3,60.3,216.1,74.3,216.1z"/>
	<path class="st2" d="M132.7,216.1c14,0,25.2,11.3,25.2,25.3c0,14-11.2,25.1-25.2,25.1s-25.1-11.1-25.1-25.1
		C107.5,227.3,118.7,216.1,132.7,216.1z M132.7,259.5c10,0,18.2-8.1,18.2-18.1c0-9.9-8.2-18.3-18.2-18.3c-9.9,0-18.1,8.3-18.1,18.3
		C114.5,251.4,122.7,259.5,132.7,259.5z"/>
	<path class="st2" d="M177.9,218.1c0-0.7,0.6-1.3,1.3-1.3h16.1c13.5,0,24.6,11,24.6,24.4c0,13.6-11.1,24.6-24.6,24.6h-16.1
		c-0.7,0-1.3-0.6-1.3-1.3V218.1z M194.3,259.1c10.3,0,17.8-7.6,17.8-17.9c0-10.3-7.5-17.8-17.8-17.8H185v35.7H194.3z"/>
	<path class="st2" d="M239.9,218.1c0-0.7,0.6-1.3,1.3-1.3h28c0.8,0,1.3,0.6,1.3,1.3v3.9c0,0.7-0.6,1.3-1.3,1.3h-22.1v14.3h18.7
		c0.7,0,1.3,0.6,1.3,1.3v3.9c0,0.8-0.6,1.3-1.3,1.3h-18.7v15.1h22.1c0.8,0,1.3,0.6,1.3,1.3v3.9c0,0.7-0.6,1.3-1.3,1.3h-28
		c-0.8,0-1.3-0.6-1.3-1.3V218.1z"/>
	<path class="st2" d="M291.8,265.5h34.6c1.2,0,2.1,0.6,2.1,1.3v2c0,0.7-0.9,1.3-2.1,1.3h-34.6c-1.2,0-2.1-0.6-2.1-1.3v-2
		C289.7,266,290.6,265.5,291.8,265.5z"/>
</g>
</svg>
